<svg t="1758582258416" class="icon" viewBox="0 0 1024 1024" version="1.1"
  xmlns="http://www.w3.org/2000/svg" p-id="1628"
  data-spm-anchor-id="a313x.search_index.0.i8.6e503a81hBVGAa">
  <path
    d="M935.992889 739.100444c-9.016889-73.813333-138.069333-109.511111-176.696889-143.786666-4.437333-3.896889-6.997333-16.810667-6.997333-21.105778 0-18.944 4.266667-25.457778 4.266666-25.457778s69.233778-49.294222 67.925334-173.312c-1.877333-52.622222-31.061333-146.375111-120.917334-146.375111h-5.12c-19.370667 0-35.669333 4.152889-49.578666 10.922667 19.228444 72.419556 42.353778 205.312-54.897778 294.4-38.115556 63.943111 88.945778 101.461333 69.176889 91.477333 114.972444 58.112 145.92 102.712889 154.339555 148.821333 7.054222 38.485333 11.036444 62.008889 11.036445 62.008889s86.129778-14.791111 108.401778-33.564444c0.967111-20.536889 3.811556-42.666667-0.938667-64z"
    fill="#007acc" p-id="1629" data-spm-anchor-id="a313x.search_index.0.i1.6e503a81hBVGAa" class=""></path>
  <path
    d="M353.564444 610.360889c7.395556-3.157333 16.412444-6.030222 27.107556-13.596445 15.587556-11.036444 27.591111-33.763556-1.365333-61.610666C283.420444 379.733333 318.293333 276.48 332.885333 237.539556a103.082667 103.082667 0 0 0-41.841777-8.476445h-5.006223c-91.761778 0-116.138667 93.895111-117.987555 146.545778-1.251556 124.188444 66.247111 173.539556 66.247111 173.539555s4.181333 6.542222 4.181333 25.486223c0 4.295111-2.503111 17.237333-6.826666 21.162666-37.660444 34.304-163.356444 70.058667-172.145778 143.957334-4.636444 21.361778-1.877333 43.52-0.967111 64.113777 20.593778 17.749333 86.471111 32.824889 86.471111 32.824889s5.489778-18.688 11.036444-49.607111c8.220444-45.681778 63.146667-119.608889 197.518222-176.725333z m207.530667-12.942222c-5.432889-4.864-8.561778-20.935111-8.561778-26.282667 0-23.523556 5.233778-31.573333 5.233778-31.573333-0.113778 0.056889 84.992-51.712 83.342222-215.438223C638.748444 258.759111 602.965333 142.222222 492.686222 142.222222h-6.257778c-115.399111 0-146.062222 116.536889-148.394666 181.902222-1.564444 154.112 83.285333 215.409778 83.285333 215.409778s10.296889 13.198222 10.296889 36.721778c0 5.347556-8.163556 16.298667-13.596444 21.162667-47.331556 42.581333-217.884444 85.532444-228.920889 177.265777-8.561778 38.912-59.192889 100.636444 109.141333 125.496889 46.364444 6.826667 109.368889 10.894222 194.446222 10.894223 390.4 0 309.674667-85.077333 298.723556-134.968889-11.093333-91.733333-182.983111-136.106667-230.343111-178.688z"
    fill="#5dbff2" p-id="1630" data-spm-anchor-id="a313x.search_index.0.i0.6e503a81hBVGAa" class=""></path>
</svg>