<svg viewBox="0 0 1024 1024" version="1.1"
  xmlns="http://www.w3.org/2000/svg" p-id="10251">
  <path
    d="M844.792013 0.001024H196.359575a143.612553 143.612553 0 0 0-143.612553 143.612553v736.750318A143.868547 143.868547 0 0 0 115.465517 998.377063a142.332584 142.332584 0 0 0 80.894058 25.599386 146.172492 146.172492 0 0 0 51.198772-9.727767l257.529819-100.093598a39.679048 39.679048 0 0 1 29.695287 0L793.593242 1014.248682a143.356559 143.356559 0 0 0 195.323312-133.884787V143.613577A143.612553 143.612553 0 0 0 844.792013 0.001024z m40.959017 880.362871a40.703023 40.703023 0 0 1-55.806661 38.399079L572.926538 819.181364a142.844572 142.844572 0 0 0-103.933506 0L211.207219 918.762974a40.703023 40.703023 0 0 1-55.806661-38.399079V143.613577A41.215011 41.215011 0 0 1 196.359575 102.398566H844.792013a41.215011 41.215011 0 0 1 40.959017 41.215011z"
    fill="currentColor"></path>
  <path
    d="M659.708455 387.319728h-87.549899v-87.549898a51.198771 51.198771 0 0 0-102.397542 0v87.549898h-87.549899a51.198771 51.198771 0 0 0 0 102.397543h87.549899v87.549899a51.198771 51.198771 0 1 0 102.397542 0v-87.549899h87.549899a51.198771 51.198771 0 0 0 0-102.397543z"
    fill="currentColor"></path>
</svg>