<svg xmlns="http://www.w3.org/2000/svg" version="1.1" viewBox="0 0 50 50" fill="none"
  stroke="currentColor"
  stroke-linecap="round"
  stroke-width="3.3px">
  <path d="M40.99,29.87v12.23" />
  <line x1="34.87" y1="35.98" x2="47.1" y2="35.98" />
  <path
    d="M30.42,43.69l-3.42,1.39c-1.99.8-3.6-.33-3.6-2.54v-16c0-2.21,1.61-4.65,3.6-5.46l14.4-5.82c1.99-.8,3.6.33,3.6,2.54v5.34" />
  <path
    d="M16.2,15.45l14.4-5.82c2.4-.97,3.6-.12,3.6,2.54M16.2,15.45c-2.4.97-3.6,2.79-3.6,5.46v16c0,2.67,1.2,3.51,3.6,2.54" />
  <path
    d="M7.2,10.09l14.4-5.82c2.4-.97,3.6-.12,3.6,2.54M7.2,10.09c-2.4.97-3.6,2.79-3.6,5.46v16c0,2.67,1.2,3.51,3.6,2.54" />
</svg>