<svg xmlns="http://www.w3.org/2000/svg" version="1.1" viewBox="0 0 50 50" fill="none"
  stroke="currentColor"
  stroke-linecap="round"
  stroke-width="2.4px">
  <path
    d="M7.2,10.09l14.4-5.82c2.4-.97,3.6-.12,3.6,2.54M7.2,10.09c-2.4.97-3.6,2.79-3.6,5.46v16c0,2.67,1.2,3.51,3.6,2.54" />
  <path
    d="M16.2,15.45l14.4-5.82c2.4-.97,3.6-.12,3.6,2.54M16.2,15.45c-2.4.97-3.6,2.79-3.6,5.46v16c0,2.67,1.2,3.51,3.6,2.54" />
  <path
    d="M27,21.08l14.4-5.82c1.99-.8,3.6.33,3.6,2.54v16c0,2.21-1.61,4.65-3.6,5.46l-14.4,5.82c-1.99.8-3.6-.33-3.6-2.54v-16c0-2.21,1.61-4.65,3.6-5.46Z" />
</svg>