<?xml version="1.0" encoding="UTF-8"?>
<svg id="_图层_1" data-name="图层_1" xmlns="http://www.w3.org/2000/svg" version="1.1" viewBox="0 0 50 50">
  <!-- Generator: Adobe Illustrator 29.8.1, SVG Export Plug-In . SVG Version: 2.1.1 Build 2)  -->
  <defs>
    <style>
      .st0, .st1 {
        stroke: #000;
        stroke-width: 3px;
      }

      .st0, .st1, .st2 {
        fill: none;
      }

      .st1 {
        stroke-linecap: round;
      }
    </style>
  </defs>
  <rect class="st2" width="50" height="50"/>
  <g>
    <path class="st1" d="M7.2,10.09l14.4-5.82c2.4-.97,3.6-.12,3.6,2.54M7.2,10.09c-2.4.97-3.6,2.79-3.6,5.46v16c0,2.67,1.2,3.51,3.6,2.54"/>
    <path class="st1" d="M16.2,15.45l14.4-5.82c2.4-.97,3.6-.12,3.6,2.54M16.2,15.45c-2.4.97-3.6,2.79-3.6,5.46v16c0,2.67,1.2,3.51,3.6,2.54"/>
    <path class="st0" d="M27,21.08l14.4-5.82c1.99-.8,3.6.33,3.6,2.54v16c0,2.21-1.61,4.65-3.6,5.46l-14.4,5.82c-1.99.8-3.6-.33-3.6-2.54v-16c0-2.21,1.61-4.65,3.6-5.46Z"/>
  </g>
</svg>